<svg width="169" height="195" viewBox="0 0 169 195" fill="none" xmlns="http://www.w3.org/2000/svg">
<path d="M131.38 44.2009C132.607 40.5651 133.033 36.713 132.629 32.9019C132.224 29.0909 131 25.4091 129.037 22.1028C126.127 17.1019 121.682 13.1425 116.343 10.796C111.005 8.44941 105.049 7.83699 99.3342 9.04711C96.7568 6.18111 93.5888 3.89138 90.0419 2.33121C86.4949 0.771053 82.6514 -0.0235731 78.7681 0.000532469C72.9258 -0.0133806 67.23 1.80368 62.5017 5.18978C57.7734 8.57585 54.2572 13.356 52.4598 18.841C48.6539 19.6097 45.0583 21.1718 41.9137 23.4226C38.7691 25.6735 36.1481 28.5611 34.2262 31.8924C31.293 36.8796 30.0409 42.6568 30.6505 48.3916C31.2602 54.1261 33.7001 59.5212 37.6183 63.7991C36.3914 67.4349 35.9659 71.287 36.37 75.0981C36.7741 78.9091 37.9987 82.5909 39.9617 85.8973C42.872 90.8979 47.317 94.8569 52.6555 97.2035C57.994 99.5501 63.9501 100.163 69.6643 98.9529C72.2417 101.819 75.41 104.109 78.9566 105.669C82.5036 107.229 86.3472 108.024 90.2304 107.999C96.0757 108.015 101.775 106.197 106.504 102.808C111.235 99.4202 114.752 94.6366 116.547 89.1483C120.353 88.3796 123.949 86.8177 127.094 84.5667C130.238 82.316 132.859 79.4281 134.781 76.0968C137.711 71.1102 138.96 65.3343 138.349 59.602C137.737 53.8696 135.297 48.4769 131.38 44.2009ZM90.2392 100.939C85.4409 100.946 80.7933 99.2879 77.1087 96.2553C77.2748 96.1659 77.5663 96.0082 77.7562 95.8935L99.5501 83.4721C100.097 83.1651 100.551 82.7199 100.866 82.1821C101.181 81.6442 101.345 81.0335 101.341 80.4128V50.0963L110.553 55.3446C110.601 55.3684 110.643 55.4035 110.674 55.4469C110.705 55.4904 110.725 55.5409 110.732 55.5935V80.7C110.725 86.0625 108.564 91.2036 104.723 94.9971C100.882 98.7909 95.6737 100.928 90.2392 100.939ZM46.1676 82.3673C43.7642 78.2698 42.898 73.4689 43.7206 68.8046C43.8825 68.9005 44.1651 69.0709 44.368 69.1859L66.1619 81.607C66.7051 81.9202 67.323 82.0854 67.9521 82.0854C68.5809 82.0854 69.1988 81.9202 69.742 81.607L96.3502 66.4478V76.9443C96.3532 76.9978 96.3428 77.0515 96.3198 77.1001C96.2968 77.1487 96.2621 77.1911 96.2186 77.2233L74.1871 89.7742C69.4747 92.4523 63.8778 93.1762 58.625 91.7876C53.3721 90.399 48.892 87.011 46.1676 82.3673ZM40.4343 35.4224C42.8272 31.3195 46.6069 28.1783 51.1112 26.5483C51.1112 26.7335 51.1004 27.0616 51.1004 27.2892V52.1316C51.0966 52.7521 51.2603 53.3623 51.5747 53.8998C51.8891 54.4371 52.3428 54.8821 52.8893 55.1891L79.4974 70.3463L70.2857 75.5943C70.2403 75.624 70.188 75.6419 70.1339 75.6467C70.0797 75.6516 70.0249 75.6432 69.9749 75.6221L47.9413 63.0604C43.2371 60.3723 39.8051 55.9535 38.3979 50.7724C36.9906 45.5917 37.7229 40.0715 40.4343 35.4224ZM116.118 52.8001L89.5097 37.641L98.7216 32.3949C98.767 32.3654 98.8192 32.3474 98.8734 32.3425C98.9276 32.3376 98.9821 32.3463 99.0321 32.3673L121.066 44.9183C124.441 46.8423 127.192 49.6751 128.995 53.0855C130.797 56.4959 131.578 60.3423 131.246 64.1747C130.913 68.0071 129.481 71.6666 127.117 74.7249C124.752 77.7832 121.554 80.1136 117.896 81.4431C117.896 81.2557 117.896 80.9279 117.896 80.7V55.8576C117.901 55.2382 117.739 54.6286 117.427 54.0913C117.114 53.554 116.663 53.1085 116.118 52.8001ZM125.286 39.1846C125.125 39.0866 124.842 38.9183 124.639 38.8036L102.845 26.3822C102.302 26.0696 101.684 25.9046 101.055 25.9046C100.426 25.9046 99.8085 26.0696 99.2653 26.3822L72.6571 41.5417V31.0451C72.6541 30.9914 72.6645 30.938 72.6875 30.8894C72.7105 30.8408 72.7452 30.7984 72.7887 30.7662L94.8202 18.2257C98.1953 16.3054 102.055 15.3732 105.948 15.538C109.84 15.7029 113.604 16.9581 116.801 19.1567C119.996 21.3554 122.492 24.4065 123.995 27.9534C125.497 31.5001 125.946 35.3957 125.286 39.1846ZM67.6489 57.8931L58.4348 52.6449C58.3867 52.6211 58.3448 52.586 58.3136 52.5425C58.2824 52.4991 58.2624 52.4486 58.2559 52.3957V27.2892C58.2583 23.444 59.371 19.6789 61.4632 16.4348C63.5558 13.1907 66.5415 10.6018 70.0709 8.97113C73.6004 7.34046 77.5274 6.73553 81.3926 7.22709C85.2581 7.71865 88.9014 9.28641 91.8964 11.7468C91.7303 11.8362 91.441 11.9938 91.2489 12.1088L69.455 24.53C68.9079 24.8367 68.454 25.2816 68.139 25.819C67.8243 26.3563 67.6604 26.9668 67.664 27.5873L67.6489 57.8931ZM72.6527 47.2476L84.5036 40.4941L96.3543 47.2433V60.746L84.5036 67.4954L72.6527 60.746V47.2476Z" fill="white"/>
<path d="M1.24 171.6C1.24 169.867 1.54667 168.173 2.16 166.52C2.8 164.84 3.72 163.32 4.92 161.96C6.12 160.573 7.58667 159.48 9.32 158.68C11.0533 157.853 13.0267 157.44 15.24 157.44C17.8533 157.44 20.1067 158.013 22 159.16C23.92 160.307 25.3467 161.8 26.28 163.64L22.04 166.56C21.56 165.493 20.9333 164.653 20.16 164.04C19.3867 163.4 18.56 162.96 17.68 162.72C16.8 162.453 15.9333 162.32 15.08 162.32C13.6933 162.32 12.48 162.6 11.44 163.16C10.4267 163.72 9.57333 164.453 8.88 165.36C8.18667 166.267 7.66667 167.28 7.32 168.4C7 169.52 6.84 170.64 6.84 171.76C6.84 173.013 7.04 174.227 7.44 175.4C7.84 176.547 8.4 177.573 9.12 178.48C9.86667 179.36 10.7467 180.067 11.76 180.6C12.8 181.107 13.9333 181.36 15.16 181.36C16.04 181.36 16.9333 181.213 17.84 180.92C18.7467 180.627 19.5867 180.16 20.36 179.52C21.1333 178.88 21.7333 178.053 22.16 177.04L26.68 179.64C26.12 181.053 25.2 182.253 23.92 183.24C22.6667 184.227 21.2533 184.973 19.68 185.48C18.1067 185.987 16.5467 186.24 15 186.24C12.9733 186.24 11.12 185.827 9.44 185C7.76 184.147 6.30667 183.027 5.08 181.64C3.88 180.227 2.93333 178.653 2.24 176.92C1.57333 175.16 1.24 173.387 1.24 171.6ZM49.3419 186H43.9819V174.24C43.9819 172.613 43.6619 171.4 43.0219 170.6C42.4085 169.8 41.5552 169.4 40.4619 169.4C39.8219 169.4 39.1419 169.587 38.4219 169.96C37.7019 170.333 37.0485 170.853 36.4619 171.52C35.9019 172.16 35.4885 172.907 35.2219 173.76V186H29.8619V156.8H35.2219V168.92C35.9952 167.587 37.0485 166.547 38.3819 165.8C39.7152 165.053 41.1685 164.68 42.7419 164.68C44.1019 164.68 45.2085 164.92 46.0619 165.4C46.9152 165.853 47.5819 166.48 48.0619 167.28C48.5419 168.053 48.8752 168.933 49.0619 169.92C49.2485 170.88 49.3419 171.88 49.3419 172.92V186ZM52.5625 179.8C52.5625 178.44 52.9358 177.253 53.6825 176.24C54.4558 175.2 55.5225 174.4 56.8825 173.84C58.2425 173.28 59.8025 173 61.5625 173C62.4425 173 63.3358 173.067 64.2425 173.2C65.1492 173.333 65.9358 173.547 66.6025 173.84V172.72C66.6025 171.387 66.2025 170.36 65.4025 169.64C64.6292 168.92 63.4692 168.56 61.9225 168.56C60.7758 168.56 59.6825 168.76 58.6425 169.16C57.6025 169.56 56.5092 170.147 55.3625 170.92L53.6425 167.4C55.0292 166.493 56.4425 165.813 57.8825 165.36C59.3492 164.907 60.8825 164.68 62.4825 164.68C65.4692 164.68 67.7892 165.427 69.4425 166.92C71.1225 168.413 71.9625 170.547 71.9625 173.32V180C71.9625 180.56 72.0558 180.96 72.2425 181.2C72.4558 181.44 72.7892 181.587 73.2425 181.64V186C72.7625 186.08 72.3225 186.147 71.9225 186.2C71.5492 186.253 71.2292 186.28 70.9625 186.28C69.8958 186.28 69.0825 186.04 68.5225 185.56C67.9892 185.08 67.6558 184.493 67.5225 183.8L67.4025 182.72C66.4958 183.893 65.3625 184.8 64.0025 185.44C62.6425 186.08 61.2558 186.4 59.8425 186.4C58.4558 186.4 57.2025 186.12 56.0825 185.56C54.9892 184.973 54.1225 184.187 53.4825 183.2C52.8692 182.187 52.5625 181.053 52.5625 179.8ZM65.6025 180.88C65.8958 180.56 66.1358 180.24 66.3225 179.92C66.5092 179.6 66.6025 179.307 66.6025 179.04V176.92C65.9625 176.653 65.2692 176.453 64.5225 176.32C63.7758 176.16 63.0692 176.08 62.4025 176.08C61.0158 176.08 59.8692 176.387 58.9625 177C58.0825 177.587 57.6425 178.373 57.6425 179.36C57.6425 179.893 57.7892 180.4 58.0825 180.88C58.3758 181.36 58.8025 181.747 59.3625 182.04C59.9225 182.333 60.5892 182.48 61.3625 182.48C62.1625 182.48 62.9492 182.333 63.7225 182.04C64.4958 181.72 65.1225 181.333 65.6025 180.88ZM89.3359 184.92C88.8826 185.107 88.3359 185.32 87.6959 185.56C87.0559 185.8 86.3626 185.987 85.6159 186.12C84.8959 186.28 84.1626 186.36 83.4159 186.36C82.4293 186.36 81.5226 186.187 80.6959 185.84C79.8693 185.493 79.2026 184.947 78.6959 184.2C78.2159 183.427 77.9759 182.427 77.9759 181.2V169.16H75.2159V165.04H77.9759V158.24H83.3359V165.04H87.7359V169.16H83.3359V179.4C83.3626 180.12 83.5626 180.64 83.9359 180.96C84.3093 181.28 84.7759 181.44 85.3359 181.44C85.8959 181.44 86.4426 181.347 86.9759 181.16C87.5093 180.973 87.9359 180.813 88.2559 180.68L89.3359 184.92ZM104.174 186.2C102.334 186.2 100.587 185.827 98.9341 185.08C97.3074 184.333 95.8674 183.307 94.6141 182C93.3874 180.667 92.4274 179.12 91.7341 177.36C91.0407 175.6 90.6941 173.693 90.6941 171.64C90.6941 169.693 91.0407 167.867 91.7341 166.16C92.4274 164.427 93.4007 162.907 94.6541 161.6C95.9074 160.293 97.3741 159.267 99.0541 158.52C100.734 157.773 102.561 157.4 104.534 157.4C107.201 157.4 109.481 157.973 111.374 159.12C113.294 160.24 114.734 161.733 115.694 163.6L111.574 166.64C110.854 165.227 109.841 164.147 108.534 163.4C107.254 162.653 105.854 162.28 104.334 162.28C103.134 162.28 102.041 162.533 101.054 163.04C100.067 163.547 99.2141 164.24 98.4941 165.12C97.7741 166 97.2141 167.013 96.8141 168.16C96.4407 169.307 96.2541 170.52 96.2541 171.8C96.2541 173.16 96.4541 174.413 96.8541 175.56C97.2807 176.707 97.8674 177.707 98.6141 178.56C99.3874 179.413 100.281 180.093 101.294 180.6C102.307 181.08 103.427 181.32 104.654 181.32C106.094 181.32 107.467 180.947 108.774 180.2C110.107 179.453 111.347 178.36 112.494 176.92V182.36C110.121 184.92 107.347 186.2 104.174 186.2ZM112.094 175.44H106.374V171.4H116.654V186H112.094V175.44ZM121.358 186V157.6H133.398C134.705 157.6 135.905 157.867 136.998 158.4C138.092 158.933 139.038 159.653 139.838 160.56C140.665 161.467 141.305 162.48 141.758 163.6C142.212 164.72 142.438 165.867 142.438 167.04C142.438 168.64 142.065 170.16 141.318 171.6C140.572 173.04 139.545 174.213 138.238 175.12C136.932 176.027 135.385 176.48 133.598 176.48H126.878V186H121.358ZM126.878 171.64H133.278C133.945 171.64 134.545 171.453 135.078 171.08C135.612 170.707 136.038 170.173 136.358 169.48C136.678 168.76 136.838 167.947 136.838 167.04C136.838 166.053 136.652 165.213 136.278 164.52C135.932 163.827 135.465 163.307 134.878 162.96C134.318 162.613 133.705 162.44 133.038 162.44H126.878V171.64ZM167.52 162.44H158.44V186H152.96V162.44H143.88V157.6H167.52V162.44Z" fill="white"/>
</svg>
